<?xml version="1.0" encoding="utf-8"?>
<!-- Generator: Adobe Illustrator 16.0.4, SVG Export Plug-In . SVG Version: 6.00 Build 0)  -->
<!DOCTYPE svg PUBLIC "-//W3C//DTD SVG 1.1//EN" "http://www.w3.org/Graphics/SVG/1.1/DTD/svg11.dtd">
<svg version="1.1" id="Layer_1_1_" xmlns="http://www.w3.org/2000/svg" xmlns:xlink="http://www.w3.org/1999/xlink" x="0px" y="0px"
	 width="330px" height="53.269px" viewBox="0 0 330 53.269" enable-background="new 0 0 330 53.269" xml:space="preserve">
<g>
	<g>
		<g>
			<g>
				<path fill="#13B5EA" d="M29.018,42.006l14.242-10.615C19.195,35.194,3.826,42.922,0,45.006
					c1.465-0.022,22.617-0.257,38.333,8.263l11.336-12.832C38.684,40.252,29.018,42.006,29.018,42.006z M85.384,0l-48.68,25.635
					h14.277L85.384,0z"/>
				
					<linearGradient id="SVGID_1_" gradientUnits="userSpaceOnUse" x1="1538.6426" y1="-1558.0806" x2="1594.1567" y2="-1607.4264" gradientTransform="matrix(1 0 0 1 -1520.1504 1607.8164)">
					<stop  offset="0" style="stop-color:#FFFFFF"/>
					<stop  offset="0.3449" style="stop-color:#A2B8D4"/>
					<stop  offset="0.6522" style="stop-color:#6891BA"/>
					<stop  offset="0.8787" style="stop-color:#467CAB"/>
					<stop  offset="1" style="stop-color:#3875A5"/>
				</linearGradient>
				<path fill="url(#SVGID_1_)" d="M29.018,42.006l14.242-10.615C19.195,35.194,3.826,42.922,0,45.006
					c1.465-0.022,22.617-0.257,38.333,8.263l11.336-12.832C38.684,40.252,29.018,42.006,29.018,42.006z M85.384,0l-48.68,25.635
					h14.277L85.384,0z"/>
				<path fill="#005288" d="M29.018,42.006c0,0,9.667-1.754,20.651-1.569l9.552-10.813c-5.672,0.363-11.001,0.985-15.961,1.767
					L29.018,42.006z M50.981,25.635h11.761L85.384,0L50.981,25.635z"/>
				
					<linearGradient id="SVGID_2_" gradientUnits="userSpaceOnUse" x1="1568.9434" y1="-1555.5283" x2="1604.7206" y2="-1606.4839" gradientTransform="matrix(1 0 0 1 -1520.1504 1607.8164)">
					<stop  offset="0" style="stop-color:#6E717A"/>
					<stop  offset="0.1768" style="stop-color:#878A91"/>
					<stop  offset="0.552" style="stop-color:#D2D2D6"/>
					<stop  offset="0.6044" style="stop-color:#DFDFE1"/>
					<stop  offset="0.7709" style="stop-color:#96989F"/>
					<stop  offset="0.9245" style="stop-color:#656871"/>
					<stop  offset="1" style="stop-color:#545861"/>
				</linearGradient>
				<path fill="url(#SVGID_2_)" d="M49.668,40.437c4.579,0.078,9.39,0.496,13.825,1.519l6.631-12.709
					c-3.761,0.019-7.397,0.146-10.904,0.377L49.668,40.437z M62.742,25.635h9.265L85.384,0L62.742,25.635z"/>
			</g>
			<g>
				<g>
					<path fill="#FFFFFF" d="M101.016,25.685L91.21,43.829h3.501l2.243-4.239l11.127-0.002c0,0,0.427,0.744,1.1,2.004
						c0.643,1.202,1.211,2.339,3.04,2.339c1.83,0,1.859,0,1.859,0l-9.979-18.246H101.016z M98.565,36.508l3.958-7.355l3.958,7.355
						H98.565z M252.717,30.904c0-3.994-3.259-5.219-6.899-5.219h-11.208v18.144h3.081v-7.427h6.375c0,0,2.783,3.842,3.574,5.086
						c0.79,1.243,1.546,2.341,3.373,2.341s2.125,0,2.125,0l-5.288-7.495C249.985,35.982,252.717,34.932,252.717,30.904z
						 M246.136,33.32h-8.445v-4.554h8.27c2.343,0,3.675,0.177,3.675,2.206C249.635,32.761,248.164,33.32,246.136,33.32z
						 M137.021,30.904c0-3.994-3.256-5.219-6.898-5.219h-11.208v18.144h3.081v-7.427h6.375c0,0,2.82,3.944,3.606,5.19
						c0.792,1.243,1.548,2.339,3.376,2.339c1.829,0,2.124,0,2.124,0l-5.325-7.597C134.29,35.982,137.021,34.932,137.021,30.904z
						 M130.437,33.32h-8.441v-4.554h8.266c2.349,0,3.677,0.208,3.677,2.206C133.938,32.923,132.737,33.32,130.437,33.32z
						 M322.608,25.685h-10.124v18.144h3.083v-6.586h7.041c4.414,0,7.392-1.19,7.392-5.743C330,26.069,325.48,25.685,322.608,25.685z
						 M322.608,34.16h-7.041v-5.394h7.041c2.487,0,4.307,0,4.307,2.733C326.915,33.915,325.48,34.16,322.608,34.16z M302.618,35.945
						c0,3.292-1.987,5.363-7.031,5.363s-7.03-2.071-7.03-5.363v-10.26h-3.081v10.26c0,4.595,2.968,8.441,10.111,8.441
						c7.182,0,10.113-3.847,10.113-8.441v-10.26h-3.082V35.945z M152.881,34.993c0,0,0.385,1.832,2.268,1.832
						c1.881,0,4.313,0,4.313,0v2.777c-1.793,1.058-3.939,1.762-6.048,1.762c-5.099,0-8.221-3.201-8.221-6.542
						c0-3.412,3.014-6.61,8.292-6.61c2.426,0,4.814,1.056,6.822,2.39l1.791-2.496c-1.053-0.775-3.762-2.988-8.613-2.988
						c-7.035,0-11.384,4.606-11.384,9.668c0,5.171,4.525,9.67,11.277,9.67c4.852,0,7.7-2.215,9.177-3.234V33.73h-9.733
						C152.761,34.631,152.881,34.993,152.881,34.993z M179.006,25.126c-6.97,0-11.104,4.376-11.104,9.629
						c0,5.255,4.204,9.632,11.104,9.632c6.971,0,11.102-4.377,11.102-9.632C190.107,29.538,185.977,25.126,179.006,25.126z
						 M179.006,41.308c-5.011,0-8.02-3.049-8.02-6.553c0-3.5,3.009-6.548,8.02-6.548c5.006,0,8.017,3.047,8.017,6.548
						C187.022,38.259,184.047,41.308,179.006,41.308z M217.774,34.993c0,0,0.384,1.832,2.268,1.832c1.881,0,4.312,0,4.312,0v2.777
						c-1.79,1.058-3.938,1.762-6.049,1.762c-5.099,0-8.218-3.201-8.218-6.542c0-3.412,3.014-6.61,8.291-6.61
						c2.424,0,4.817,1.056,6.82,2.39l1.794-2.496c-1.057-0.775-3.764-2.988-8.614-2.988c-7.035,0-11.384,4.606-11.384,9.668
						c0,5.171,4.525,9.67,11.277,9.67c4.852,0,7.702-2.215,9.178-3.234V33.73h-9.733C217.654,34.631,217.774,34.993,217.774,34.993z
						 M269.249,25.126c-6.969,0-11.107,4.376-11.107,9.629c0,5.255,4.207,9.632,11.107,9.632c6.97,0,11.104-4.377,11.104-9.632
						C280.353,29.538,276.219,25.126,269.249,25.126z M269.249,41.308c-5.009,0-8.021-3.049-8.021-6.553
						c0-3.5,3.013-6.548,8.021-6.548s8.021,3.047,8.021,6.548C277.27,38.259,274.296,41.308,269.249,41.308z"/>
				</g>
			</g>
		</g>
	</g>
</g>
</svg>
