<?xml version="1.0" encoding="utf-8"?>
<!-- Generator: Adobe Illustrator 19.2.1, SVG Export Plug-In . SVG Version: 6.00 Build 0)  -->
<svg version="1.1" id="Layer_1_1_" xmlns="http://www.w3.org/2000/svg" xmlns:xlink="http://www.w3.org/1999/xlink" x="0px" y="0px"
	 viewBox="0 0 290.8 53.3" style="enable-background:new 0 0 290.8 53.3;" xml:space="preserve">
<style type="text/css">
	.st0{fill:#1AB2E7;}
	.st1{clip-path:url(#SVGID_2_);}
	.st2{clip-path:url(#SVGID_4_);}
	.st3{clip-path:url(#SVGID_6_);}
	.st4{clip-path:url(#SVGID_10_);}
	.st5{clip-path:url(#SVGID_12_);}
	.st6{clip-path:url(#SVGID_14_);}
	.st7{clip-path:url(#SVGID_18_);}
	.st8{clip-path:url(#SVGID_20_);}
	.st9{clip-path:url(#SVGID_22_);}
	.st10{clip-path:url(#SVGID_26_);}
	.st11{clip-path:url(#SVGID_28_);}
	.st12{clip-path:url(#SVGID_30_);}
	.st13{fill:#005487;}
	.st14{clip-path:url(#SVGID_34_);}
	.st15{clip-path:url(#SVGID_36_);}
</style>
<g>
	<path class="st0" d="M29.1,41.7l13.8-10.3C19.6,35.1,4.7,42.6,1,44.6c1.4,0,21.9-0.2,37.2,8l11-12.4C38.5,40,29.1,41.7,29.1,41.7
		 M83.8,1L36.6,25.8h13.8L83.8,1"/>
	<g>
		<defs>
			<path id="SVGID_1_" d="M29.1,41.7l5.1-3.8L29.1,41.7L29.1,41.7 M1,44.6c3.7-2,18.6-9.5,41.9-13.2l0,0C19.6,35.1,4.7,42.6,1,44.6
				C1,44.6,1,44.6,1,44.6 M38.2,52.6c-8.4-4.6-18.4-6.5-25.9-7.4C19.7,46.1,29.8,48,38.2,52.6"/>
		</defs>
		<clipPath id="SVGID_2_">
			<use xlink:href="#SVGID_1_"  style="overflow:visible;"/>
		</clipPath>
		<g class="st1">
			<defs>
				<path id="SVGID_3_" d="M1,44.6c1.4,0,21.9-0.2,37.2,8l11-12.4c-10.6-0.2-20,1.5-20,1.5l13.8-10.3C19.6,35.1,4.7,42.6,1,44.6
					 M36.6,25.8h13.8L83.8,1L36.6,25.8"/>
			</defs>
			<clipPath id="SVGID_4_">
				<use xlink:href="#SVGID_3_"  style="overflow:visible;"/>
			</clipPath>
			<g class="st2">
				<defs>
					<rect id="SVGID_5_" x="-720.5" y="-223.3" width="1309.4" height="1011.8"/>
				</defs>
				<clipPath id="SVGID_6_">
					<use xlink:href="#SVGID_5_"  style="overflow:visible;"/>
				</clipPath>
				<g class="st3">
					<defs>
						<rect id="SVGID_7_" x="0.3" y="30.6" width="44.1" height="22.9"/>
					</defs>
					<clipPath id="SVGID_8_">
						<use xlink:href="#SVGID_7_"  style="overflow:visible;"/>
					</clipPath>
					<g style="clip-path:url(#SVGID_8_);">
						
							<image style="overflow:visible;" width="37" height="20" xlink:href="AC1B2986B0031115.jpg"  transform="matrix(1.1914 0 0 1.1427 0.3356 30.6286)">
						</image>
					</g>
				</g>
			</g>
		</g>
	</g>
	<g>
		<defs>
			<path id="SVGID_9_" d="M38.2,52.6c-8.4-4.6-18.4-6.5-25.9-7.4c-5.1-0.6-9-0.6-10.6-0.6c-0.3,0-0.5,0-0.6,0
				c3.7-2,18.6-9.5,41.9-13.2L29.1,41.7h0c0,0,8.5-1.5,18.4-1.5c0.5,0,1.1,0,1.6,0L38.2,52.6"/>
		</defs>
		<clipPath id="SVGID_10_">
			<use xlink:href="#SVGID_9_"  style="overflow:visible;"/>
		</clipPath>
		<g class="st4">
			<defs>
				<path id="SVGID_11_" d="M1,44.6c1.4,0,21.9-0.2,37.2,8l11-12.4c-10.6-0.2-20,1.5-20,1.5l13.8-10.3C19.6,35.1,4.7,42.6,1,44.6
					 M36.6,25.8h13.8L83.8,1L36.6,25.8"/>
			</defs>
			<clipPath id="SVGID_12_">
				<use xlink:href="#SVGID_11_"  style="overflow:visible;"/>
			</clipPath>
			<g class="st5">
				<defs>
					<rect id="SVGID_13_" x="-720.5" y="-223.3" width="1309.4" height="1011.8"/>
				</defs>
				<clipPath id="SVGID_14_">
					<use xlink:href="#SVGID_13_"  style="overflow:visible;"/>
				</clipPath>
				<g class="st6">
					<defs>
						<rect id="SVGID_15_" x="0.3" y="30.6" width="50" height="22.9"/>
					</defs>
					<clipPath id="SVGID_16_">
						<use xlink:href="#SVGID_15_"  style="overflow:visible;"/>
					</clipPath>
					<g style="clip-path:url(#SVGID_16_);">
						
							<image style="overflow:visible;" width="42" height="20" xlink:href="AC1B2986B0031117.jpg"  transform="matrix(1.1913 0 0 1.1427 0.3356 30.6286)">
						</image>
					</g>
				</g>
			</g>
		</g>
	</g>
	<g>
		<defs>
			<polyline id="SVGID_17_" points="36.6,25.8 36.6,25.8 83.8,1 36.6,25.8 			"/>
		</defs>
		<clipPath id="SVGID_18_">
			<use xlink:href="#SVGID_17_"  style="overflow:visible;"/>
		</clipPath>
		<g class="st7">
			<defs>
				<path id="SVGID_19_" d="M1,44.6c1.4,0,21.9-0.2,37.2,8l11-12.4c-10.6-0.2-20,1.5-20,1.5l13.8-10.3C19.6,35.1,4.7,42.6,1,44.6
					 M36.6,25.8h13.8L83.8,1L36.6,25.8"/>
			</defs>
			<clipPath id="SVGID_20_">
				<use xlink:href="#SVGID_19_"  style="overflow:visible;"/>
			</clipPath>
			<g class="st8">
				<defs>
					<rect id="SVGID_21_" x="-720.5" y="-223.3" width="1309.4" height="1011.8"/>
				</defs>
				<clipPath id="SVGID_22_">
					<use xlink:href="#SVGID_21_"  style="overflow:visible;"/>
				</clipPath>
				<g class="st9">
					<defs>
						<rect id="SVGID_23_" x="36" y="0.1" width="48.8" height="26.4"/>
					</defs>
					<clipPath id="SVGID_24_">
						<use xlink:href="#SVGID_23_"  style="overflow:visible;"/>
					</clipPath>
					<g style="clip-path:url(#SVGID_24_);">
						
							<image style="overflow:visible;" width="41" height="23" xlink:href="AC1B2986B0031112.jpg"  transform="matrix(1.1913 0 0 1.1489 36.0453 7.689192e-02)">
						</image>
					</g>
				</g>
			</g>
		</g>
	</g>
	<g>
		<defs>
			<polyline id="SVGID_25_" points="50.4,25.8 36.6,25.8 83.8,1 50.4,25.8 			"/>
		</defs>
		<clipPath id="SVGID_26_">
			<use xlink:href="#SVGID_25_"  style="overflow:visible;"/>
		</clipPath>
		<g class="st10">
			<defs>
				<path id="SVGID_27_" d="M1,44.6c1.4,0,21.9-0.2,37.2,8l11-12.4c-10.6-0.2-20,1.5-20,1.5l13.8-10.3C19.6,35.1,4.7,42.6,1,44.6
					 M36.6,25.8h13.8L83.8,1L36.6,25.8"/>
			</defs>
			<clipPath id="SVGID_28_">
				<use xlink:href="#SVGID_27_"  style="overflow:visible;"/>
			</clipPath>
			<g class="st11">
				<defs>
					<rect id="SVGID_29_" x="-720.5" y="-223.3" width="1309.4" height="1011.8"/>
				</defs>
				<clipPath id="SVGID_30_">
					<use xlink:href="#SVGID_29_"  style="overflow:visible;"/>
				</clipPath>
				<g class="st12">
					<defs>
						<rect id="SVGID_31_" x="36" y="0.1" width="48.8" height="26.4"/>
					</defs>
					<clipPath id="SVGID_32_">
						<use xlink:href="#SVGID_31_"  style="overflow:visible;"/>
					</clipPath>
					<g style="clip-path:url(#SVGID_32_);">
						
							<image style="overflow:visible;" width="41" height="23" xlink:href="AC1B2986B0031113.jpg"  transform="matrix(1.1913 0 0 1.1489 36.0453 7.689192e-02)">
						</image>
					</g>
				</g>
			</g>
		</g>
	</g>
	<path class="st13" d="M29.1,41.7c0,0,9.4-1.7,20-1.5l9.3-10.5c-5.5,0.4-10.7,1-15.5,1.7 M50.4,25.8h11.4L83.8,1L50.4,25.8z"/>
	<g>
		<defs>
			<path id="SVGID_33_" d="M58.4,29.7l-9.3,10.5c4.4,0.1,9.1,0.5,13.4,1.5L69,29.3C65.3,29.3,61.8,29.5,58.4,29.7 M61.8,25.8h9
				L83.8,1L61.8,25.8"/>
		</defs>
		<clipPath id="SVGID_34_">
			<use xlink:href="#SVGID_33_"  style="overflow:visible;"/>
		</clipPath>
		<g class="st14">
			<defs>
				<rect id="SVGID_35_" x="-720.5" y="-223.3" width="1309.4" height="1011.8"/>
			</defs>
			<clipPath id="SVGID_36_">
				<use xlink:href="#SVGID_35_"  style="overflow:visible;"/>
			</clipPath>
			<g class="st15">
				<g>
					<defs>
						
							<rect id="SVGID_37_" x="-857.7" y="-542.2" transform="matrix(0.5746 -0.8184 0.8184 0.5746 -261.3756 65.691)" width="1580.4" height="1653"/>
					</defs>
					<clipPath id="SVGID_38_">
						<use xlink:href="#SVGID_37_"  style="overflow:visible;"/>
					</clipPath>
					<g style="clip-path:url(#SVGID_38_);">
						
							<image style="overflow:visible;" width="9421" height="9348" xlink:href="AC1B2986B003111D.jpg"  transform="matrix(0.24 0 0 0.24 -1197.9946 -837.3704)">
						</image>
					</g>
				</g>
			</g>
		</g>
	</g>
	<path class="st13" d="M126.6,41.4h-1.8c-1.6,0-2.2-0.9-2.9-2c-0.7-1.1-3.1-4.4-3.1-4.4h-5.4v6.3h-2.6V25.9h9.5c3.1,0,5.9,1,5.9,4.4
		c0,3.4-2.3,4.3-4.1,4.6L126.6,41.4z M120.6,32.4c2,0,3-0.3,3-2c0-1.7-1.1-1.9-3.1-1.9h-7v3.9H120.6z"/>
	<path class="st13" d="M161.9,41.8c-5.9,0-9.4-3.7-9.4-8.2c0-4.5,3.5-8.2,9.4-8.2c5.9,0,9.4,3.8,9.4,8.2
		C171.4,38.1,167.8,41.8,161.9,41.8 M168.7,33.6c0-3-2.6-5.6-6.8-5.6c-4.3,0-6.8,2.6-6.8,5.6c0,3,2.6,5.6,6.8,5.6
		C166.2,39.2,168.7,36.6,168.7,33.6"/>
	<path class="st13" d="M238.7,41.8c-5.9,0-9.4-3.7-9.4-8.2c0-4.5,3.5-8.2,9.4-8.2c5.9,0,9.4,3.8,9.4,8.2
		C248.1,38.1,244.6,41.8,238.7,41.8 M245.5,33.6c0-3-2.6-5.6-6.8-5.6c-4.3,0-6.8,2.6-6.8,5.6c0,3,2.6,5.6,6.8,5.6
		C242.9,39.2,245.5,36.6,245.5,33.6"/>
	<path class="st13" d="M269.7,34.6c0,3.9-2.5,7.2-8.6,7.2c-6.1,0-8.6-3.3-8.6-7.2v-8.7h2.6v8.7c0,2.8,1.7,4.6,6,4.6
		c4.3,0,6-1.8,6-4.6v-8.7h2.6V34.6z"/>
	<path class="st13" d="M278,41.3h-2.6V25.9h8.6c2.4,0,6.3,0.3,6.3,4.9c0,3.9-2.5,4.9-6.3,4.9h-6V41.3z M284,33.1
		c2.4,0,3.7-0.2,3.7-2.3c0-2.3-1.6-2.3-3.7-2.3h-6v4.6H284z"/>
	<path class="st13" d="M225,41.3h-1.8c-1.6,0-2.2-0.9-2.9-2c-0.7-1.1-3-4.3-3-4.3h-5.4v6.3h-2.6V25.9h9.5c3.1,0,5.9,1,5.9,4.4
		c0,3.4-2.3,4.3-4.1,4.6L225,41.3z M219,32.4c1.7,0,3-0.5,3-2c0-1.7-1.1-1.9-3.1-1.9h-7v3.9H219z"/>
	<path class="st13" d="M96.9,28.8l-3.4,6.3h6.7 M101.6,37.7l-9.5,0l-1.9,3.6h-3l8.3-15.4h2.6l8.5,15.5h-1.6c-1.6,0-2-1-2.6-2
		C102,38.3,101.6,37.7,101.6,37.7"/>
	<path class="st13" d="M139.7,32.7h8.2v6.4c-1.3,0.9-3.7,2.8-7.8,2.8c-5.7,0-9.6-3.8-9.6-8.2c0-4.3,3.7-8.2,9.7-8.2
		c4.1,0,6.4,1.9,7.3,2.5l-1.5,2.1c-1.7-1.1-3.7-2-5.8-2c-4.5,0-7.1,2.7-7.1,5.6c0,2.8,2.7,5.6,7,5.6c1.8,0,3.6-0.6,5.1-1.5v-2.4
		h-3.7c-1.6,0-1.9-1.6-1.9-1.6S139.6,33.5,139.7,32.7"/>
	<path class="st13" d="M194.9,32.7h8.2v6.4c-1.3,0.9-3.7,2.8-7.8,2.8c-5.7,0-9.6-3.8-9.6-8.2c0-4.3,3.7-8.2,9.7-8.2
		c4.1,0,6.4,1.9,7.3,2.5l-1.5,2.1c-1.7-1.1-3.7-2-5.8-2c-4.5,0-7.1,2.7-7.1,5.6c0,2.8,2.7,5.6,7,5.6c1.8,0,3.6-0.6,5.1-1.5v-2.4
		h-3.7c-1.6,0-1.9-1.6-1.9-1.6S194.8,33.5,194.9,32.7"/>
</g>
</svg>
