<?xml version="1.0" encoding="utf-8"?>
<!-- Generator: Adobe Illustrator 19.2.1, SVG Export Plug-In . SVG Version: 6.00 Build 0)  -->
<svg version="1.1" id="Layer_1_1_" xmlns="http://www.w3.org/2000/svg" xmlns:xlink="http://www.w3.org/1999/xlink" x="0px" y="0px"
	 viewBox="0 0 85.4 53.3" style="enable-background:new 0 0 85.4 53.3;" xml:space="preserve">
<style type="text/css">
	.st0{fill:#13B5EA;}
	.st1{fill:url(#SVGID_1_);}
	.st2{fill:#005288;}
	.st3{fill:url(#SVGID_2_);}
</style>
<g>
	<g>
		<g>
			<g>
				<path class="st0" d="M29,42l14.2-10.6C19.2,35.2,3.8,42.9,0,45c1.5,0,22.6-0.3,38.3,8.3l11.3-12.8C38.7,40.3,29,42,29,42z
					 M85.4,0L36.7,25.6H51L85.4,0z"/>
				
					<linearGradient id="SVGID_1_" gradientUnits="userSpaceOnUse" x1="1538.6431" y1="1614.08" x2="1594.1572" y2="1663.4258" gradientTransform="matrix(1 0 0 -1 -1520.1504 1663.8164)">
					<stop  offset="0" style="stop-color:#FFFFFF"/>
					<stop  offset="0.3449" style="stop-color:#A2B8D4"/>
					<stop  offset="0.6522" style="stop-color:#6891BA"/>
					<stop  offset="0.8787" style="stop-color:#467CAB"/>
					<stop  offset="1" style="stop-color:#3875A5"/>
				</linearGradient>
				<path class="st1" d="M29,42l14.2-10.6C19.2,35.2,3.8,42.9,0,45c1.5,0,22.6-0.3,38.3,8.3l11.3-12.8C38.7,40.3,29,42,29,42z
					 M85.4,0L36.7,25.6H51L85.4,0z"/>
				<path class="st2" d="M29,42c0,0,9.7-1.8,20.7-1.6l9.6-10.8c-5.7,0.4-11,1-16,1.8L29,42z M51,25.6h11.8L85.4,0L51,25.6z"/>
				
					<linearGradient id="SVGID_2_" gradientUnits="userSpaceOnUse" x1="1568.9432" y1="1611.5284" x2="1604.7205" y2="1662.484" gradientTransform="matrix(1 0 0 -1 -1520.1504 1663.8164)">
					<stop  offset="0" style="stop-color:#6E717A"/>
					<stop  offset="0.1768" style="stop-color:#878A91"/>
					<stop  offset="0.552" style="stop-color:#D2D2D6"/>
					<stop  offset="0.6044" style="stop-color:#DFDFE1"/>
					<stop  offset="0.7709" style="stop-color:#96989F"/>
					<stop  offset="0.9245" style="stop-color:#656871"/>
					<stop  offset="1" style="stop-color:#545861"/>
				</linearGradient>
				<path class="st3" d="M49.7,40.4c4.6,0.1,9.4,0.5,13.8,1.5l6.6-12.7c-3.8,0-7.4,0.1-10.9,0.4L49.7,40.4z M62.7,25.6H72L85.4,0
					L62.7,25.6z"/>
			</g>
		</g>
	</g>
</g>
</svg>
